 <svg version="1.0" xmlns="http://www.w3.org/2000/svg"  width="900.000000pt" height="900.000000pt" viewBox="0 0 900.000000 900.000000"  preserveAspectRatio="xMidYMid meet">  <g transform="translate(0.000000,900.000000) scale(0.100000,-0.100000)" fill="#444444" stroke="none"> <path d="M4731 6973 l-32 -28 0 -210 1 -210 32 -27 c18 -16 42 -28 54 -28 49 0 51 -4 46 -119 -4 -107 -4 -109 19 -121 13 -7 27 -18 31 -24 12 -18 9 -63 -4 -73 -8 -5 -76 -6 -158 -3 -117 5 -153 4 -185 -9 -36 -14 -74 -45 -75 -63 0 -4 -14 -27 -31 -52 -52 -78 -111 -73 -115 9 -6 89 -53 115 -212 115 -60 0 -123 -5 -140 -11 -41 -14 -72 -65 -72 -117 0 -32 -4 -42 -20 -47 -40 -13 -57 2 -63 55 -7 59 -30 93 -73 109 -45 16 -244 14 -285 -3 -43 -18 -69 -62 -69 -115 0 -41 0 -41 -37 -41 -58 -1 -97 -37 -97 -92 0 -24 0 -334 2 -690 l2 -647 22 -21 c22 -20 28 -20 1230 -20 1140 0 1208 1 1217 18 7 13 19 1492 12 1575 0 11 -17 25 -43 36 -37 15 -60 17 -153 11 -60 -3 -118 -2 -127 2 -29 14 -23 64 10 85 15 10 31 22 35 28 4 5 6 57 5 115 l-3 105 39 3 c40 4 65 21 86 62 19 36 21 365 2 405 -31 67 -17 65 -437 65 l-381 0 -33 -27z m712 -50 l67 -6 0 -177 c0 -149 -3 -180 -16 -190 -12 -10 -91 -13 -349 -13 -310 -1 -336 1 -355 18 -18 17 -20 30 -20 180 0 180 0 181 65 188 68 7 536 7 608 0z m-58 -543 l0 -85 -238 -3 -237 -2 0 90 0 90 238 -2 237 -3 0 -85z m-60 -205 l0 -40 -180 0 c-166 0 -180 1 -183 18 -2 10 -1 30 2 43 l6 24 178 -2 177 -3 0 -40z m-1603 -142 c10 -9 18 -29 18 -45 l0 -28 -145 0 -145 0 0 27 c0 53 22 63 143 63 89 0 114 -3 129 -17z m512 -5 c9 -12 16 -33 16 -45 l0 -24 -147 3 c-134 3 -148 5 -151 21 -2 11 6 30 19 43 21 23 29 24 135 24 105 0 114 -1 128 -22z m1431 13 c8 -14 13 -251 5 -256 -4 -2 -458 -5 -1009 -7 l-1003 -2 -27 -33 c-14 -18 -30 -33 -36 -33 -5 0 -23 16 -38 35 l-28 35 -107 -2 -107 -3 -3 38 c-6 71 -39 67 567 67 626 0 551 -12 631 104 l45 66 552 0 c333 0 554 -4 558 -9z m-1175 -354 c0 -4 0 -10 0 -15 0 -4 -13 -13 -28 -20 -35 -15 -109 -83 -149 -137 -42 -55 -93 -154 -93 -179 -1 -12 -7 -32 -15 -46 -21 -36 -21 -287 0 -326 8 -16 15 -37 15 -47 0 -19 2 -22 56 -117 38 -66 121 -155 187 -200 41 -28 43 -46 6 -43 -13 1 -132 3 -264 4 -164 1 -242 5 -247 13 -12 18 -10 1114 2 1118 21 6 530 2 530 -5z m536 -13 c103 -43 135 -65 211 -140 45 -44 87 -92 93 -105 5 -13 14 -31 19 -39 71 -124 82 -335 25 -470 -33 -78 -105 -183 -156 -225 -28 -24 -118 -85 -125 -85 -3 0 -19 -7 -36 -14 -40 -18 -174 -46 -222 -46 -63 0 -188 31 -252 62 -150 74 -283 246 -313 405 -35 194 17 368 155 508 64 66 160 135 186 135 6 0 25 7 42 15 43 19 92 24 223 19 74 -2 124 -9 150 -20z m622 13 c11 -2 13 -100 12 -552 0 -302 -4 -553 -8 -557 -10 -10 -465 -27 -475 -17 -5 4 23 32 62 63 112 89 172 175 221 312 29 84 29 298 -1 387 -42 128 -136 257 -230 317 -84 55 -75 57 179 53 125 -2 233 -5 240 -6z m-1767 -556 c0 -304 -2 -556 -5 -559 -7 -6 -513 -3 -531 4 -7 3 -16 15 -19 27 -7 27 -8 1072 -1 1079 3 2 129 4 280 4 l275 -1 1 -554z"/> <path d="M4847 6853 c-11 -10 -8 -212 3 -234 10 -17 23 -19 161 -19 155 0 189 7 189 39 0 37 -23 43 -157 40 l-128 -4 -3 63 -3 62 238 -2 238 -3 0 -55 0 -55 -45 -5 c-55 -7 -70 -15 -70 -40 0 -27 30 -40 92 -40 86 0 89 6 86 140 l-3 115 -296 3 c-162 1 -298 -1 -302 -5z"/> <path d="M4927 5942 c-22 -24 -21 -35 1 -55 26 -24 113 -23 143 2 22 18 22 19 6 45 -16 23 -24 26 -76 26 -43 0 -62 -5 -74 -18z"/> <path d="M5167 5942 c-10 -10 -17 -23 -17 -29 0 -43 121 -61 155 -23 16 18 17 23 5 45 -12 22 -20 25 -70 25 -42 0 -61 -5 -73 -18z"/> <path d="M5402 5948 c-19 -19 -14 -56 8 -68 34 -18 120 -8 136 15 12 18 11 24 -2 43 -13 18 -25 22 -73 22 -31 0 -62 -5 -69 -12z"/> <path d="M4770 5623 c-55 -11 -130 -35 -135 -44 -4 -5 -14 -9 -23 -9 -24 0 -141 -98 -174 -145 -74 -107 -93 -166 -93 -300 0 -98 3 -118 29 -180 30 -76 56 -105 91 -105 30 0 55 -30 55 -68 0 -26 8 -35 57 -66 32 -20 64 -36 73 -36 9 0 22 -6 29 -12 8 -9 54 -13 154 -13 133 0 146 2 199 27 188 88 298 254 298 452 0 232 -139 418 -360 482 -52 15 -163 25 -200 17z m143 -84 c90 -16 148 -46 214 -110 79 -78 133 -199 133 -303 0 -133 -98 -294 -219 -360 -175 -95 -340 -72 -481 65 -90 88 -116 132 -135 223 -14 68 -14 84 -1 148 20 96 47 150 108 214 58 61 130 103 208 120 71 16 103 16 173 3z"/> <path d="M4765 5421 c-48 -9 -78 -25 -129 -71 -54 -49 -82 -97 -96 -163 -31 -149 66 -307 212 -347 66 -18 163 -9 220 19 46 23 118 90 118 109 0 5 6 15 13 21 8 6 20 42 27 79 26 141 -33 261 -166 333 -35 20 -142 30 -199 20z m147 -77 c93 -36 148 -116 148 -214 0 -76 -23 -124 -87 -179 -48 -41 -48 -41 -131 -41 -71 0 -88 4 -122 25 -22 14 -55 48 -75 77 -31 46 -35 60 -35 115 0 95 47 168 135 209 59 28 109 30 167 8z"/> <path d="M2943 4453 c-51 -4 -81 -23 -68 -43 8 -13 361 -14 370 0 3 5 -6 17 -20 26 -26 17 -174 26 -282 17z"/> <path d="M5797 4451 c-21 -4 -43 -13 -49 -19 -26 -26 6 -32 182 -32 181 0 209 6 179 36 -17 16 -253 28 -312 15z"/> <path d="M1717 4012 c-15 -3 -17 -38 -16 -375 0 -249 4 -375 11 -384 6 -7 31 -13 59 -13 59 0 82 19 75 63 -15 95 -17 190 -4 198 7 4 40 5 73 2 80 -7 128 14 155 68 17 33 20 59 20 193 0 124 -3 160 -16 183 -32 56 -48 61 -200 64 -78 2 -148 3 -157 1z m241 -140 c8 -10 12 -51 12 -117 0 -124 -9 -138 -86 -133 l-49 3 -3 132 c-2 119 -1 132 15 135 33 8 98 -4 111 -20z"/> <path d="M4073 4013 c-10 -4 -7 -748 2 -763 3 -5 28 -10 55 -10 37 0 51 4 57 18 5 9 6 78 3 152 -3 74 -3 141 -1 149 3 11 22 12 90 7 47 -3 91 -2 98 2 19 12 20 100 1 118 -14 14 -27 15 -94 5 -63 -8 -81 -8 -89 3 -8 10 -11 113 -6 189 1 5 54 7 119 6 64 -2 123 0 130 5 15 9 16 102 1 112 -10 6 -349 12 -366 7z"/> <path d="M2189 3918 c-1 -2 -3 -151 -5 -333 -3 -251 -1 -331 9 -337 20 -13 104 -9 115 5 8 9 8 49 2 132 -6 83 -6 123 2 132 14 17 112 17 127 0 7 -10 8 -48 1 -133 -8 -105 -7 -120 8 -131 17 -14 90 -17 109 -5 8 5 11 97 12 340 l0 333 -67 -3 -67 -3 5 -100 c2 -55 4 -116 5 -135 l0 -35 -70 0 -70 0 5 100 c2 55 4 116 5 135 l0 35 -62 3 c-35 2 -63 2 -64 0z"/> <path d="M2731 3901 c-56 -30 -61 -55 -61 -321 0 -328 -2 -325 188 -325 l124 0 34 39 34 39 0 241 c0 271 -5 292 -71 328 -47 25 -199 25 -248 -1z m188 -115 c8 -9 11 -74 9 -212 l-3 -199 -58 -3 c-35 -2 -64 2 -73 9 -11 9 -14 49 -14 197 0 216 2 222 80 222 28 0 52 -6 59 -14z"/> <path d="M3127 3914 c-12 -13 -8 -102 6 -111 6 -4 37 -8 67 -8 l55 0 -1 -60 c-6 -462 -5 -478 8 -486 22 -15 106 -11 115 5 4 8 6 128 3 268 -3 139 -3 259 -1 266 3 10 18 12 61 7 65 -8 68 -4 66 76 l-1 44 -186 3 c-102 1 -188 -1 -192 -4z"/> <path d="M3655 3903 c-65 -35 -64 -32 -65 -320 l0 -263 29 -32 29 -33 126 0 c124 0 126 0 153 28 l28 27 0 271 0 271 -39 34 c-39 34 -40 34 -135 34 -68 -1 -105 -5 -126 -17z m185 -122 c15 -29 13 -384 -2 -399 -15 -15 -115 -16 -124 -1 -9 15 -9 393 0 408 4 6 32 11 61 11 43 0 56 -4 65 -19z"/> <path d="M4546 3912 c-7 -11 -9 -652 -3 -658 10 -10 359 -6 368 3 6 6 9 34 7 64 l-3 54 -120 -2 c-73 -1 -122 2 -126 9 -7 11 -5 135 3 143 2 3 42 0 87 -5 98 -13 111 -6 111 52 0 74 -9 80 -113 76 l-92 -3 -1 55 c-1 107 -9 101 130 98 l121 -3 0 60 0 60 -182 3 c-100 1 -184 -1 -187 -6z"/> <path d="M5000 3854 l0 -66 60 7 60 7 2 -279 3 -278 54 -3 c30 -2 58 1 64 7 8 8 9 164 3 501 l-1 45 55 1 c30 0 61 1 68 2 8 1 12 22 12 62 l0 60 -190 0 -190 0 0 -66z"/> <path d="M5524 3903 c-60 -30 -68 -63 -72 -306 -3 -185 -1 -226 12 -262 29 -75 41 -80 183 -80 l125 0 34 39 c33 38 34 42 34 123 0 59 -4 83 -12 84 -40 4 -85 4 -95 1 -9 -3 -13 -25 -13 -62 0 -33 -4 -61 -9 -64 -20 -13 -88 -14 -111 -3 l-25 13 0 189 c-1 221 1 225 75 225 27 0 52 -6 58 -13 6 -7 12 -40 14 -72 l3 -60 55 0 55 0 3 80 c4 93 -12 133 -63 165 -42 26 -202 28 -251 3z"/> <path d="M5932 3583 l3 -338 50 -3 c75 -4 80 3 75 100 -2 46 -4 106 -4 133 l-1 50 62 3 c81 4 83 -1 72 -147 -11 -131 -7 -141 55 -141 72 0 68 -18 69 346 l0 329 -58 3 c-32 2 -62 -1 -67 -6 -5 -5 -4 -62 1 -133 7 -92 6 -126 -2 -131 -21 -13 -127 -9 -132 5 -3 6 -1 64 4 127 4 63 6 121 4 128 -4 8 -27 12 -69 12 l-64 0 2 -337z"/> <path d="M6410 3586 l0 -335 178 -3 c97 -2 185 0 195 5 13 6 17 20 17 55 0 75 -1 75 -141 71 l-124 -4 -3 71 c-3 86 -1 88 104 73 103 -14 106 -13 102 63 l-3 63 -100 0 -100 0 0 75 0 75 121 -3 c140 -4 147 -1 142 75 l-3 48 -192 3 -193 2 0 -334z"/> <path d="M6888 3593 c-2 -213 1 -331 7 -340 7 -10 26 -13 60 -11 l50 3 1 93 c1 50 4 99 8 107 6 17 71 21 81 5 11 -17 35 -120 35 -148 0 -39 12 -52 53 -59 45 -7 87 3 87 21 0 7 -12 49 -26 92 -30 92 -32 120 -11 137 29 21 37 66 37 193 0 144 -11 180 -63 212 -31 20 -48 22 -175 22 l-141 0 -3 -327z m252 188 c5 -11 10 -57 10 -102 0 -104 -11 -119 -87 -119 l-53 0 0 120 0 120 60 0 c48 0 61 -4 70 -19z"/> <path d="M3458 2882 c-38 -23 -58 -63 -58 -115 0 -62 12 -90 51 -118 32 -22 40 -23 144 -17 l50 3 -3 65 c-2 36 -9 68 -15 73 -7 4 -30 6 -52 5 -45 -3 -55 -26 -17 -43 27 -12 28 -31 3 -45 -32 -17 -61 -11 -86 16 -30 33 -32 73 -4 108 23 30 78 36 99 11 7 -8 23 -15 36 -15 36 0 30 33 -10 64 -40 30 -96 34 -138 8z"/> <path d="M3745 2866 c-39 -33 -40 -35 -40 -100 0 -63 2 -67 38 -103 31 -32 44 -38 80 -38 128 0 176 178 68 254 -45 32 -98 28 -146 -13z m129 -48 c23 -33 20 -94 -5 -119 -16 -16 -28 -20 -52 -15 -41 8 -48 16 -54 65 -8 57 15 91 62 91 24 0 39 -7 49 -22z"/> <path d="M4047 2866 c-58 -58 -60 -148 -5 -205 104 -107 259 31 192 171 -20 42 -64 68 -114 68 -31 0 -46 -7 -73 -34z m125 -43 c24 -21 25 -105 2 -124 -20 -17 -80 -17 -96 0 -17 16 -16 104 1 124 17 22 69 22 93 0z"/> <path d="M4315 2878 c-3 -13 -5 -72 -3 -133 l3 -110 67 -3 c65 -3 67 -2 107 36 37 35 41 44 41 87 0 89 -65 145 -168 145 -35 0 -43 -4 -47 -22z m118 -47 c29 -11 42 -54 32 -101 -5 -23 -14 -32 -42 -39 -20 -6 -40 -8 -45 -5 -9 6 -11 138 -1 147 9 10 27 9 56 -2z"/> <path d="M4713 2888 c-4 -7 -8 -66 -9 -131 0 -106 2 -119 18 -128 38 -20 45 2 43 134 -1 67 -3 125 -4 130 -2 12 -39 8 -48 -5z"/> <path d="M4857 2893 c-4 -3 -7 -64 -7 -135 l0 -128 61 0 c102 0 148 40 149 128 0 66 -23 103 -80 126 -41 16 -111 22 -123 9z m110 -59 c25 -7 37 -34 35 -83 -2 -42 -17 -59 -57 -63 l-30 -3 -3 78 c-3 83 -1 86 55 71z"/> <path d="M5142 2891 c-10 -6 -13 -40 -13 -130 0 -68 1 -124 3 -126 8 -8 159 -8 167 0 5 6 5 19 0 34 -8 21 -13 23 -52 17 -48 -7 -71 3 -65 30 3 16 14 20 61 22 49 3 57 6 57 22 0 21 -1 22 -70 24 -41 1 -45 3 -45 26 0 23 4 25 55 28 63 4 75 11 65 41 -6 19 -14 21 -78 21 -40 0 -78 -4 -85 -9z"/> <path d="M5436 2853 c-35 -96 -48 -129 -68 -167 -22 -42 -15 -60 23 -54 15 2 25 12 29 28 5 22 11 25 50 25 38 0 46 -4 60 -30 13 -22 24 -29 41 -27 12 1 25 4 27 7 2 2 -8 30 -24 62 -15 32 -37 87 -50 122 -34 96 -62 107 -88 34z m54 -82 c16 -31 12 -41 -15 -41 -20 0 -25 5 -25 23 0 40 22 50 40 18z"/> </g> </svg> 